<svg xmlns="http://www.w3.org/2000/svg" viewBox="0 0 263.06 154.27"><defs><style>.cls-1{fill:#64CBE8;}.cls-2,.cls-3{fill:#EF767A;}.cls-3{font-size:33.7px;font-family:HoeflerTitling-Light, Hoefler Titling;font-weight:300;}.cls-4{letter-spacing:-0.04em;}.cls-5{letter-spacing:0.01em;}.cls-6{letter-spacing:0em;}.cls-7{letter-spacing:0.01em;}.cls-8{letter-spacing:0.02em;}.cls-9{letter-spacing:-0.03em;}.cls-10{letter-spacing:0em;}.cls-11{letter-spacing:-0.02em;}.cls-12{letter-spacing:-0.01em;}.cls-13{letter-spacing:0em;}.cls-14{letter-spacing:0em;}.cls-15{letter-spacing:-0.02em;}.cls-16{letter-spacing:0.01em;}.cls-17{letter-spacing:-0.02em;}.cls-18{letter-spacing:0em;}.cls-19{letter-spacing:0.01em;}</style></defs><g id="Layer_2" data-name="Layer 2"><g id="Layer_1-2" data-name="Layer 1"><path class="cls-1" d="M255.44.13V134.6l-2.12.31c-.21.06-24.52,3.79-46.7,3.79-22,0-48-2.88-56.25-3.82V141l-1.44.69a45.93,45.93,0,0,1-17.7,3.66A42.46,42.46,0,0,1,114,141.68l-1.34-.73v-6.07c-8.23.94-34.22,3.82-56.16,3.82C34.26,138.7,10,135,9.73,134.91l-2.11-.31V0H0V142.87l2.24.34c.27.06,26,4,49.64,4,23.29,0,50.89-3.06,59.61-4.06v6.45l1.43.77a45.08,45.08,0,0,0,18.29,3.88A48.78,48.78,0,0,0,150,150.39l1.53-.73v-6.49c8.71,1,36.32,4.06,59.71,4.06s49.34-4,49.57-4l2.25-.34V.14Z"/><path class="cls-2" d="M54.4,18.33a2.1,2.1,0,0,0-1.18-1.92,5.36,5.36,0,0,0-2-.25c-.85,0-2.18.06-2.76.06-.41,0-1,0-1.37,0a.44.44,0,0,0-.06.17.43.43,0,0,0,0,.22c.21.07.55.12.77.18a1,1,0,0,1,.3.63c0,.39,0,.87,0,1.71,0,2.33,0,3.55,0,3.82a.94.94,0,0,1-.63.78c-.17,0-.41.09-.64.11a1.3,1.3,0,0,0,0,.23.35.35,0,0,0,0,.16c.35,0,1.39-.05,1.79-.05,1,0,2,.05,2.39.05h.28a.38.38,0,0,0,0-.18.62.62,0,0,0,0-.2,1.8,1.8,0,0,1-1-.35.94.94,0,0,1-.22-.65l0-2.43c.66,0,1.37.07,1.75.07a4.14,4.14,0,0,0,1.28-.2,2,2,0,0,0,1.27-1.92m-2,0a1.78,1.78,0,0,1-.57,1.38,1.75,1.75,0,0,1-1.14.3,4.2,4.2,0,0,1-.48,0c-.09,0-.14,0-.14-.08V16.63a4.74,4.74,0,0,1,.64-.06c.75,0,1.21.19,1.43.66a2.23,2.23,0,0,1,.25,1.05m12,5.72a.44.44,0,0,0-.06-.23,1.62,1.62,0,0,1-.73-.15,1.81,1.81,0,0,1-.18-.27A12.15,12.15,0,0,0,63,22.08a4.17,4.17,0,0,0-.81-1.31,3.83,3.83,0,0,0-.83-.37l-.45-.17a2.51,2.51,0,0,1,.45-.07,1.92,1.92,0,0,0,1.21-.41,1.74,1.74,0,0,0,.69-1.43,2.12,2.12,0,0,0-1.38-2,5.34,5.34,0,0,0-1.33-.12c-.82,0-2,.08-2.53.08l-1.52,0-.65,0a.76.76,0,0,0-.05.21,1.23,1.23,0,0,0,0,.2c.19,0,.53.06.71.1a1.3,1.3,0,0,1,.46.6A26.21,26.21,0,0,1,57,20.14c0,1.12,0,2.43-.05,2.85a.82.82,0,0,1-.45.73,4.46,4.46,0,0,1-.63.08.66.66,0,0,0-.06.22,1,1,0,0,0,.05.18l2.19,0c.71,0,1.31,0,1.93,0a.37.37,0,0,0,0-.17.56.56,0,0,0,0-.23c-.22,0-.49-.09-.61-.11a.82.82,0,0,1-.48-.78V20.36h.29a1.11,1.11,0,0,1,.58.17,2.21,2.21,0,0,1,.88.81,6.8,6.8,0,0,1,.69,2.37c0,.23.12.43.33.45s.67,0,1.09,0h1.58a.3.3,0,0,0,.07-.19m-3.2-5.77a1.71,1.71,0,0,1-1,1.6,3.4,3.4,0,0,1-.9.09,2,2,0,0,1-.41,0v-3a.35.35,0,0,1,.07-.25,1.18,1.18,0,0,1,.46-.06c.86,0,1.24.07,1.54.59a1.94,1.94,0,0,1,.26,1M70.06,24a.72.72,0,0,0,0-.22c-.16,0-.61-.06-.81-.1a1.72,1.72,0,0,1-.38-.85c0-.53,0-1.62,0-2.65V17.46a.88.88,0,0,1,.2-.6,1.92,1.92,0,0,1,1-.29.69.69,0,0,0,0-.2.35.35,0,0,0,0-.18h-.32c-.47,0-1.55,0-1.92,0l-1.8,0h-.24a.24.24,0,0,0-.06.19,1.83,1.83,0,0,0,0,.21,2.24,2.24,0,0,1,.87.15,1.25,1.25,0,0,1,.36.94c0,.21,0,.66,0,1.68,0,.55,0,1.32,0,2,0,.32,0,1,0,1.42a2,2,0,0,1-.15.66c-.14.11-.27.31-1.07.37a.62.62,0,0,0,0,.23c0,.09,0,.13,0,.19h.19c.44,0,1.55-.06,2.12-.06l1.68,0H70a.45.45,0,0,0,0-.18M81,16.34a.37.37,0,0,0,0-.15h-.25c-.56,0-.91,0-1.9,0l-1,0h-.29s0,.14,0,.19a.3.3,0,0,0,.06.18,4.88,4.88,0,0,1,1.14.32A2.26,2.26,0,0,1,79,18c0,.16,0,.33,0,.78V21.1a4.4,4.4,0,0,1,0,.47c-.19-.21-.45-.6-.9-1.1l-3.68-4.08a.78.78,0,0,0-.16-.15h-.33l-2.18,0a.42.42,0,0,0,0,.15,1.52,1.52,0,0,0,0,.21,1.56,1.56,0,0,1,.83.42,3.37,3.37,0,0,1,.58.7.84.84,0,0,1,0,.35c0,.57,0,1.38,0,2.15v2.24a5.16,5.16,0,0,1-.07.84,2.27,2.27,0,0,1-1.16.56.79.79,0,0,0,0,.2s0,.15,0,.15h.21l1.06,0c.49,0,.81,0,1.27,0h.66s0-.14,0-.18a.57.57,0,0,0,0-.18,2.12,2.12,0,0,1-1.32-.68,6.21,6.21,0,0,1-.14-1.37c0-.35,0-.84,0-1.49,0-.87,0-1.63,0-2l.19.24L79,24.22c0,.06.25.07.31.07a.19.19,0,0,0,.13,0,1.24,1.24,0,0,0,.1-.49c0-.32,0-.65,0-.82v-4.6c0-1.38.65-1.76,1.41-1.8a.49.49,0,0,0,0-.21m8.59,6.3a.36.36,0,0,0-.37-.26H89.1a2.6,2.6,0,0,1-2.22,1.29,2.43,2.43,0,0,1-2.23-1.46,6.17,6.17,0,0,1-.34-2,4.89,4.89,0,0,1,.33-1.93c.49-1.28,1.19-1.67,2-1.67a2.27,2.27,0,0,1,1.77,1A4.61,4.61,0,0,1,89,18.94a1.31,1.31,0,0,0,.25,0,.59.59,0,0,0,.26-.1c0-.12-.12-1-.12-1.24s.09-.87.09-1.08a1,1,0,0,0-.43-.12c-.17.12-.22.26-.38.45a3.64,3.64,0,0,0-2.45-.78,3.79,3.79,0,0,0-2.77,1.09,4.2,4.2,0,0,0-1.18,3.11,4,4,0,0,0,1.56,3.3,4.4,4.4,0,0,0,2.57.74,3.41,3.41,0,0,0,2.82-1.18,2.05,2.05,0,0,0,.31-.52m9.34-.38a1.42,1.42,0,0,0,0-.32c-.05,0-.07,0-.16,0a1.06,1.06,0,0,0-.25,0,4.05,4.05,0,0,1-1.21,1.69,1.67,1.67,0,0,1-.83.13h-.9a4.15,4.15,0,0,1-.73-.06c-.16,0-.34-.3-.42-.48a1.19,1.19,0,0,1-.12-.69V20.09h.41a1.79,1.79,0,0,1,.67.16,1,1,0,0,1,.5.46,4.3,4.3,0,0,1,.19.92.75.75,0,0,0,.28,0,.4.4,0,0,0,.22-.05c0-.3-.06-1.11-.06-1.55s.07-1.31.11-1.71a.54.54,0,0,0-.22,0,.92.92,0,0,0-.29,0,4.29,4.29,0,0,1-.18.65,1.31,1.31,0,0,1-.75.58,3,3,0,0,1-.63.08h-.24v-1c0-1.06,0-1.4,0-1.6s0-.28,0-.38a5.23,5.23,0,0,1,.66,0h1a1.36,1.36,0,0,1,.71.22,4.86,4.86,0,0,1,1,1.37,1,1,0,0,0,.24,0c.06,0,.07,0,.16-.06,0-.68,0-1.55-.07-1.82,0-.11,0-.15-.25-.15l-.95,0H93.05l-1.51,0h-.38a.37.37,0,0,0,0,.18.59.59,0,0,0,0,.22,5,5,0,0,1,.81.12c.15.13.29.19.39.72,0,.23,0,.87,0,1.37V21.1c0,.46,0,1.13,0,1.41a3,3,0,0,1-.24,1,2.8,2.8,0,0,1-1,.16.76.76,0,0,0-.06.25.51.51,0,0,0,.06.2h.36l2,0,1.44,0c.36,0,1.39.07,3.62.07a1.06,1.06,0,0,0,.3,0,.4.4,0,0,0,0-.18c0-.22,0-.87,0-1.76m9.5-3.59V16.42c0-.17-.06-.21-.23-.21-.33,0-2.07,0-3.84,0l-3.12,0h-.82c-.14,0-.18,0-.18.19v2.11a.34.34,0,0,0,.18,0,1,1,0,0,0,.24,0,3.68,3.68,0,0,1,1.54-1.84c.33,0,1-.05,1.16-.05,0,.12,0,.51,0,1,0,.8,0,1.14,0,3,0,1.62,0,2.35,0,2.52s0,.54-1.31.6a.53.53,0,0,0,0,.25.58.58,0,0,0,0,.18h.43c.4,0,1.36-.05,1.76-.05s1.35,0,2,0h.31a.63.63,0,0,0,0-.23.42.42,0,0,0,0-.2,2.32,2.32,0,0,1-1.14-.21,3.55,3.55,0,0,1-.1-.83c0-1.19,0-1.64,0-2.44,0-1,0-1.72,0-3.63h.84a2.14,2.14,0,0,1,1.31.84,5.33,5.33,0,0,1,.59,1.2.55.55,0,0,0,.18,0,.6.6,0,0,0,.21,0m9.7,1.39a3.7,3.7,0,0,0-2-3.43,4.24,4.24,0,0,0-2.1-.56,4.51,4.51,0,0,0-3.72,2.05,4.19,4.19,0,0,0-.64,2.23,4.11,4.11,0,0,0,1.58,3.23,4.15,4.15,0,0,0,2.52.79,4.55,4.55,0,0,0,1.67-.32A3.88,3.88,0,0,0,117,23a4.22,4.22,0,0,0,1.11-2.94m-2-.21c0,1.67-.47,3.14-1.1,3.65a1.75,1.75,0,0,1-1.17.4,1.64,1.64,0,0,1-1.46-.74,5.86,5.86,0,0,1-.65-2.87,4.31,4.31,0,0,1,1.1-3.32,1.76,1.76,0,0,1,1.15-.43,1.86,1.86,0,0,1,1.5.76,4.26,4.26,0,0,1,.63,2.55m12.64-3.51a.37.37,0,0,0,0-.15h-.26c-.55,0-.9,0-1.9,0l-1,0h-.28s0,.14,0,.19a.25.25,0,0,0,.06.18,4.68,4.68,0,0,1,1.13.32,2.26,2.26,0,0,1,.33,1.13c0,.16,0,.33,0,.78V21.1c0,.26,0,.35,0,.47-.19-.21-.46-.6-.9-1.1l-3.68-4.08a.86.86,0,0,0-.17-.15h-.33l-2.17,0a.3.3,0,0,0,0,.15,1.52,1.52,0,0,0,0,.21,1.56,1.56,0,0,1,.83.42,3.78,3.78,0,0,1,.59.7,1.08,1.08,0,0,1,0,.35c0,.57,0,1.38,0,2.15v2.24a4.23,4.23,0,0,1-.07.84,2.27,2.27,0,0,1-1.16.56.79.79,0,0,0,0,.2s0,.15,0,.15h.21l1.06,0c.49,0,.82,0,1.27,0h.66S123,24,123,24a.39.39,0,0,0,0-.18,2.17,2.17,0,0,1-1.32-.68,6.21,6.21,0,0,1-.14-1.37c0-.35,0-.84,0-1.49,0-.87,0-1.63,0-2a2.54,2.54,0,0,0,.2.24l5.09,5.73a.61.61,0,0,0,.31.07.22.22,0,0,0,.14,0,1.32,1.32,0,0,0,.09-.49c0-.32,0-.65,0-.82v-4.6c0-1.38.65-1.76,1.41-1.8a.38.38,0,0,0,.05-.21"/><path class="cls-2" d="M142.9,16.44a.24.24,0,0,0-.05-.14h-.32l-1.2,0-1.26,0h-.4a.25.25,0,0,0,0,.14.44.44,0,0,0,0,.15c.05,0,.85,0,1,.21a2.42,2.42,0,0,1,.43.81,6.26,6.26,0,0,1,.09,1.21c0,.94,0,1.57,0,1.9a5.84,5.84,0,0,1-.2,1.47,2,2,0,0,1-2.16,1.43,3.16,3.16,0,0,1-1.29-.27A1.87,1.87,0,0,1,136.44,22l-.06-3.31V17.3c0-.25.32-.48.43-.62a7.24,7.24,0,0,1,.85-.11.24.24,0,0,0,.06-.15.16.16,0,0,0-.08-.14h-.42l-1.29,0h-1.73a.17.17,0,0,0-.06.15.17.17,0,0,0,.05.14l.74.1a.87.87,0,0,1,.38.49c0,.14,0,.5,0,1.19V21a6.58,6.58,0,0,0,.11,1.48,2.16,2.16,0,0,0,1,1.35,3.55,3.55,0,0,0,2,.53,3.75,3.75,0,0,0,1.89-.45,2.28,2.28,0,0,0,1.1-1.46,5.13,5.13,0,0,0,.17-1.32V19c0-.39,0-.89,0-1.09a2.24,2.24,0,0,1,.34-1.21,4.16,4.16,0,0,1,.91-.16.25.25,0,0,0,0-.13m10.22-.06a.17.17,0,0,0,0-.1h-.25c-.56,0-.8,0-1.79,0l-1,0h-.29s0,.1,0,.14a.13.13,0,0,0,.05.12,4.88,4.88,0,0,1,1.14.32,2.23,2.23,0,0,1,.32,1.13c0,.16,0,.33,0,.78v3.28a4.4,4.4,0,0,1,0,.47c-.19-.21-.51-.62-.94-1.13l-4.22-4.91a.59.59,0,0,0-.16-.15h-.29c-.7,0-1.32,0-1.51,0a.2.2,0,0,0,0,.11.78.78,0,0,0,0,.14,2,2,0,0,1,.85.31,3.21,3.21,0,0,1,.54.65,1,1,0,0,1,0,.35c0,.58,0,1.62,0,2.4V22.6a4.3,4.3,0,0,1-.07.84,2.36,2.36,0,0,1-1.15.56.24.24,0,0,0-.05.13s0,.1,0,.11h.2l1.07,0c.48,0,.7,0,1.15,0h.67s.05-.1.05-.14a.2.2,0,0,0,0-.11,2.13,2.13,0,0,1-1.33-.69,6.94,6.94,0,0,1-.14-1.39c0-.35,0-.92,0-1.57,0-.87,0-2.08,0-2.46a3.48,3.48,0,0,1,.24.28l5.23,6.13a.18.18,0,0,0,.14.06c.05,0,0,0,.06,0a1.72,1.72,0,0,0,.06-.5c0-.32,0-.65,0-.81V18.33c0-1.38.66-1.77,1.42-1.8a.26.26,0,0,0,0-.15m5,7.72a.41.41,0,0,0,0-.16,6.31,6.31,0,0,1-.82-.1,1.72,1.72,0,0,1-.38-.85c0-.52,0-1.73,0-2.76V17.44a.86.86,0,0,1,.2-.6,1.92,1.92,0,0,1,1-.29.37.37,0,0,0,0-.14.18.18,0,0,0-.06-.13h-.32c-.46,0-1.13,0-1.5,0l-1.38,0h-.24s-.06,0-.06.14a.68.68,0,0,0,0,.14,2.42,2.42,0,0,1,.87.16,1.25,1.25,0,0,1,.36.94c0,.21,0,.77,0,1.78,0,.55,0,1.31,0,1.94,0,.33,0,1.15,0,1.54a2,2,0,0,1-.15.66c-.14.11-.27.31-1.07.37a.32.32,0,0,0,0,.16c0,.09,0,.09,0,.14h.18c.44,0,1.13-.05,1.7-.05l1.26,0h.36a.22.22,0,0,0,.05-.14m9.66-7.69c0-.05,0-.11-.06-.12h-.37l-.87,0c-.9,0-1.22-.06-1.35-.06h-.2c0,.06,0,.09,0,.15s0,.08,0,.12a4.44,4.44,0,0,1,.76.16,1.08,1.08,0,0,1,.28.7,4,4,0,0,1-.27,1l-1.78,4.37-2.17-5.53a.8.8,0,0,1,.36-.61,4.82,4.82,0,0,1,.71-.09.43.43,0,0,0,.05-.16s0-.11-.06-.12h-.28c-.33,0-.85.05-1.44.05-.25,0-.75,0-1.23,0h-.43a.22.22,0,0,0,0,.14.25.25,0,0,0,0,.13,4.12,4.12,0,0,1,.92.37,19.18,19.18,0,0,1,.91,2l.91,2.21c.76,1.83,1.21,3.06,1.27,3.26.05,0,0,.07.1.07s.09,0,.11-.08l2.85-6.84a2.17,2.17,0,0,1,.39-.63,1.87,1.87,0,0,1,.88-.35s.05-.09.05-.14m8.17,6a2.92,2.92,0,0,0,0-.32.29.29,0,0,0-.17,0,.32.32,0,0,0-.14,0,2.93,2.93,0,0,1-1.14,1.69,2,2,0,0,1-.94.12h-1.23a3.75,3.75,0,0,1-.73-.06c-.17,0-.34-.29-.42-.47a1.43,1.43,0,0,1-.12-.76V20.1h.35a2.22,2.22,0,0,1,.94.16,1.21,1.21,0,0,1,.59.47,3.29,3.29,0,0,1,.16.92.3.3,0,0,0,.18,0,.26.26,0,0,0,.17-.05c0-.3-.06-1.11-.06-1.55s.07-1.22.11-1.62a.34.34,0,0,0-.18,0,.36.36,0,0,0-.18,0c0,.15-.12.62-.14.65a1.56,1.56,0,0,1-.85.59,3.7,3.7,0,0,1-.9.09h-.18V18.7c0-1.06,0-1.49,0-1.69s0-.27,0-.37.42,0,.93,0h1.21a1.27,1.27,0,0,1,.71.22,2.9,2.9,0,0,1,1,1.37.3.3,0,0,0,.13,0c.06,0,.08,0,.16-.07,0-.67,0-1.43-.06-1.71,0-.11,0-.14-.26-.14l-.94,0h-3.73c-.67,0-.81,0-1.1,0h-.37a.18.18,0,0,0-.06.13.25.25,0,0,0,.06.16,4.7,4.7,0,0,1,.8.12c.16.13.3.16.4.69,0,.23,0,1,0,1.49v2.27c0,.47,0,1.23,0,1.5a3.19,3.19,0,0,1-.24,1.07,2.76,2.76,0,0,1-1,.17.41.41,0,0,0,0,.18.27.27,0,0,0,0,.15h.37l1.53,0,1.29,0c.36,0,1.39.07,3.63.07a.77.77,0,0,0,.29,0,.32.32,0,0,0,0-.17c0-.22,0-.76,0-1.66m9.25,1.68a.34.34,0,0,0-.05-.17,1.74,1.74,0,0,1-.73-.14l-.19-.28a12.19,12.19,0,0,0-.46-1.37,4,4,0,0,0-.82-1.32,3.37,3.37,0,0,0-.79-.36l-.45-.18.45-.06a2.1,2.1,0,0,0,1.17-.41,1.77,1.77,0,0,0,.73-1.43,2.1,2.1,0,0,0-1.38-2,5.34,5.34,0,0,0-1.33-.12c-.82,0-1.44.07-2,.07l-1.09,0-.66,0a.39.39,0,0,0,0,.14.88.88,0,0,0,0,.16c.19,0,.53.06.71.1a1.28,1.28,0,0,1,.46.59c0,.35.07,1.35.07,2.91,0,1.12,0,2.53-.05,2.95a.83.83,0,0,1-.45.74c-.14,0-.41.07-.63.08a.32.32,0,0,0-.06.15.43.43,0,0,0,0,.13l1.78,0c.7,0,.88,0,1.51,0a.25.25,0,0,0,0-.12.31.31,0,0,0,0-.16c-.22,0-.5-.09-.62-.11a.85.85,0,0,1-.47-.79l0-2.75a4.18,4.18,0,0,1,.5,0,2.05,2.05,0,0,1,.88.16,2.39,2.39,0,0,1,1.08.89,6.76,6.76,0,0,1,.7,2.41c0,.23.12.43.33.45a4.59,4.59,0,0,0,.64,0h1.15a.18.18,0,0,0,.06-.14m-2.31-5.85a1.8,1.8,0,0,1-1.21,1.65,6.68,6.68,0,0,1-1.15.08c-.14,0-.51,0-.68,0v-3a.32.32,0,0,1,.08-.26,4,4,0,0,1,.77-.06c1,0,1.51.09,1.89.64a1.71,1.71,0,0,1,.31,1m9.76,3.81a2,2,0,0,0-1.25-1.94,5.85,5.85,0,0,0-1.22-.45,7.54,7.54,0,0,1-1.6-.6,1.33,1.33,0,0,1-.65-1.2,1.46,1.46,0,0,1,1.55-1.29,1.86,1.86,0,0,1,1.52.77,5.85,5.85,0,0,1,.68,1.25.23.23,0,0,0,.11,0,.36.36,0,0,0,.24-.11,9.89,9.89,0,0,1-.08-1,5.09,5.09,0,0,1,.1-.86.35.35,0,0,0-.34-.15,2.3,2.3,0,0,0-.43.4,2.72,2.72,0,0,0-1.87-.69,2.09,2.09,0,0,0-1.92,3.32,2.44,2.44,0,0,0,1.07.81c.32.13,1.75.56,1.95.64.88.34,1.22.64,1.22,1.42a1.7,1.7,0,0,1-.49,1.11,1.52,1.52,0,0,1-1.22.52,2.48,2.48,0,0,1-1.86-.81,5.09,5.09,0,0,1-.75-1.49l-.15,0a.39.39,0,0,0-.21.06c0,.15,0,.87,0,1.09a4.89,4.89,0,0,1-.12,1,.42.42,0,0,0,.35.22,1.6,1.6,0,0,1,.56-.36.61.61,0,0,1,.26.1,3.13,3.13,0,0,0,1.84.55c1.56,0,2.67-.78,2.67-2.31m5.45,2a.41.41,0,0,0,0-.16,6.31,6.31,0,0,1-.82-.1,1.72,1.72,0,0,1-.37-.85c0-.52,0-1.73,0-2.76V17.44a.92.92,0,0,1,.19-.6,1.92,1.92,0,0,1,1-.29.25.25,0,0,0,0-.14.18.18,0,0,0-.06-.13h-.32c-.46,0-1.12,0-1.5,0l-1.38,0h-.24a.15.15,0,0,0-.05.14.68.68,0,0,0,0,.14,2.33,2.33,0,0,1,.86.16,1.21,1.21,0,0,1,.36.94c0,.21,0,.77,0,1.78,0,.55,0,1.31,0,1.94,0,.33,0,1.15,0,1.54a1.79,1.79,0,0,1-.15.66c-.13.11-.27.31-1.07.37a.45.45,0,0,0,0,.16,1.13,1.13,0,0,0,0,.14h.19c.44,0,1.12-.05,1.7-.05l1.25,0h.37a.27.27,0,0,0,0-.14m9.17-5.45V16.51c0-.17-.07-.21-.23-.21-.33,0-1.86,0-3.62,0l-2.9,0h-.82c-.14,0-.19,0-.19.19v2a.19.19,0,0,0,.14.05.32.32,0,0,0,.13,0c.43-1,.65-1.47,1.39-1.85.33,0,1.49,0,1.67,0,0,.12,0,.51,0,1,0,.79,0,1.22,0,3.1,0,1.62,0,2.46,0,2.64s0,.54-1.32.59a.4.4,0,0,0,0,.19.53.53,0,0,0,0,.13h.43c.41,0,.95,0,1.35,0s.92,0,1.59,0h.31a.24.24,0,0,0,0-.16.24.24,0,0,0-.05-.16,2.18,2.18,0,0,1-1.13-.21,3,3,0,0,1-.1-.82c0-1.19,0-1.76,0-2.55,0-1,0-1.81,0-3.72h1.3a2,2,0,0,1,1.24.84,3.31,3.31,0,0,1,.5,1.2.5.5,0,0,0,.17,0,.21.21,0,0,0,.12,0m8.91-2.27c0-.07,0-.09-.06-.14-.46,0-1.05,0-1.28,0-.57,0-1.25-.05-1.55-.05,0,.07,0,.08,0,.13a.52.52,0,0,0,0,.14c.32.06.78.14.87.3a.75.75,0,0,1,.1.42,1,1,0,0,1-.07.41,12.33,12.33,0,0,1-.6,1.32,20.91,20.91,0,0,1-1,1.91c-.28-.48-.92-1.76-1.08-2.09l-.61-1.35a.78.78,0,0,1-.05-.3.55.55,0,0,1,.05-.28c.1-.2.44-.22.9-.28a.5.5,0,0,0,0-.16c0-.08,0-.06-.06-.11h-.2c-.74,0-.52,0-1.79,0-.54,0-1.19,0-1.28,0a.27.27,0,0,0-.06.16.27.27,0,0,0,0,.14c.74.17,1,.3,1,.45l1.93,3.78a4.58,4.58,0,0,1,.35.83,5.93,5.93,0,0,1,.09,1.32.93.93,0,0,1-.36.85,5.21,5.21,0,0,1-.88.15.24.24,0,0,0-.05.15.42.42,0,0,0,0,.13h1.48l1.24,0,.85,0a.28.28,0,0,0,.06-.15.25.25,0,0,0,0-.14,2.55,2.55,0,0,1-1-.22.85.85,0,0,1-.29-.71l-.09-1.66a.74.74,0,0,1,0-.26,1.81,1.81,0,0,1,.13-.31l1.7-3.36a2.18,2.18,0,0,1,.7-.74,2.9,2.9,0,0,1,.72-.22.51.51,0,0,0,0-.14"/><text class="cls-3" transform="translate(54.2 69.34)"><tspan class="cls-4">H<tspan class="cls-5" x="25.86" y="0">u</tspan><tspan class="cls-6" x="43.16" y="0">m</tspan><tspan class="cls-7" x="69.08" y="0">a</tspan><tspan class="cls-8" x="83.76" y="0">n</tspan><tspan class="cls-9" x="101.53" y="0">i</tspan><tspan class="cls-10" x="109.1" y="0">t</tspan><tspan class="cls-11" x="120.88" y="0">i</tspan><tspan class="cls-12" x="128.72" y="0">e</tspan><tspan class="cls-13" x="143.03" y="0">s</tspan></tspan><tspan class="cls-14" x="24.47" y="37.25">C</tspan><tspan class="cls-15" x="48.55" y="37.25">o</tspan><tspan class="cls-16" x="64.68" y="37.25">u</tspan><tspan class="cls-17" x="81.99" y="37.25">n</tspan><tspan class="cls-18" x="98.67" y="37.25">c</tspan><tspan class="cls-19" x="112.92" y="37.25">i</tspan><tspan x="121.87" y="37.25">l</tspan></text></g></g></svg>